<svg width="120" height="120" viewBox="0 0 120 120" fill="none" xmlns="http://www.w3.org/2000/svg">
<g clip-path="url(#clip0_3074_386)">
<path fill-rule="evenodd" clip-rule="evenodd" d="M0 32C0 28.0218 1.58035 24.2064 4.3934 21.3934C7.20644 18.5804 11.0218 17 15 17H71.25C74.8882 16.9996 78.4025 18.3214 81.1386 20.7195C83.8746 23.1175 85.6459 26.4282 86.1225 30.035L109.448 19.67C110.589 19.1613 111.84 18.946 113.086 19.0436C114.332 19.1413 115.534 19.5488 116.583 20.2292C117.631 20.9096 118.493 21.8412 119.09 22.9394C119.687 24.0376 119.999 25.2676 120 26.5175V82.4825C119.999 83.7314 119.686 84.9603 119.09 86.0576C118.493 87.1549 117.632 88.0859 116.585 88.7661C115.537 89.4463 114.336 89.8541 113.091 89.9526C111.846 90.0511 110.596 89.8371 109.455 89.33L86.1225 78.965C85.6459 82.5718 83.8746 85.8825 81.1386 88.2805C78.4025 90.6786 74.8882 92.0004 71.25 92H15C11.0218 92 7.20644 90.4196 4.3934 87.6066C1.58035 84.7936 0 80.9782 0 77V32Z" fill="#009FD6"/>
</g>
<defs>
<clipPath id="clip0_3074_386">
<rect width="120" height="120" fill="white"/>
</clipPath>
</defs>
</svg>
