<svg width="120" height="120" viewBox="0 0 120 120" fill="none" xmlns="http://www.w3.org/2000/svg">
<path d="M103 60C103 71.4043 98.4697 82.3415 90.4056 90.4056C82.3415 98.4697 71.4043 103 60 103C48.5957 103 37.6585 98.4697 29.5944 90.4056C21.5303 82.3415 17 71.4043 17 60C17 48.5957 21.5303 37.6585 29.5944 29.5944C37.6585 21.5303 48.5957 17 60 17C71.4043 17 82.3415 21.5303 90.4056 29.5944C98.4697 37.6585 103 48.5957 103 60ZM60 35.8125C60 35.0997 59.7169 34.4162 59.2128 33.9122C58.7088 33.4081 58.0253 33.125 57.3125 33.125C56.5997 33.125 55.9162 33.4081 55.4122 33.9122C54.9081 34.4162 54.625 35.0997 54.625 35.8125V65.375C54.6252 65.8487 54.7505 66.314 54.9884 66.7236C55.2262 67.1333 55.5682 67.4728 55.9795 67.7077L74.792 78.4577C75.4094 78.7914 76.1327 78.8703 76.8075 78.6777C77.4823 78.4851 78.055 78.0361 78.4032 77.4268C78.7514 76.8175 78.8474 76.0962 78.6708 75.417C78.4942 74.7379 78.0589 74.1547 77.458 73.7923L60 63.8162V35.8125Z" fill="#009FD6"/>
</svg>
