<svg width="365" height="300" viewBox="0 0 365 300" fill="none" xmlns="http://www.w3.org/2000/svg">
<path d="M0 141.062C0 126.267 15.5076 116.593 28.7953 123.1L68.3384 142.462C71.0765 143.803 74.085 144.5 77.1337 144.5H178H277.425C280.114 144.5 282.775 143.958 285.25 142.906L337.175 120.83C350.366 115.222 365 124.902 365 139.235V280C365 291.046 356.046 300 345 300H20C8.95432 300 0 291.046 0 280V141.062Z" fill="#009FD6"/>
<path d="M49.819 216.76H54.139V220H49.819V216.76ZM35.455 225.4H42.043C43.891 225.4 45.163 225.268 45.859 225.004C46.579 224.764 46.939 224.26 46.939 223.492V203.08H49.819V221.296C49.819 222.784 49.699 224.008 49.459 224.968C49.219 225.928 48.763 226.672 48.091 227.2C47.419 227.728 46.471 228.1 45.247 228.316C44.023 228.532 42.415 228.64 40.423 228.64C38.671 228.64 37.243 228.52 36.139 228.28C35.059 228.04 34.219 227.62 33.619 227.02C33.043 226.444 32.647 225.628 32.431 224.572C32.239 223.54 32.143 222.208 32.143 220.576C32.143 219.568 32.179 218.524 32.251 217.444C32.347 216.34 32.479 215.284 32.647 214.276C32.815 213.268 33.007 212.38 33.223 211.612L35.887 212.08C35.599 213.496 35.383 214.876 35.239 216.22C35.095 217.54 35.023 218.788 35.023 219.964C35.023 221.092 35.047 222.076 35.095 222.916C35.167 223.78 35.287 224.608 35.455 225.4ZM41.143 198.76C40.903 198.76 40.627 198.652 40.315 198.436C40.003 198.22 39.727 197.956 39.487 197.644C39.271 197.308 39.163 197.02 39.163 196.78C39.163 196.516 39.271 196.24 39.487 195.952C39.727 195.64 40.003 195.376 40.315 195.16C40.627 194.92 40.903 194.8 41.143 194.8C41.407 194.8 41.683 194.92 41.971 195.16C42.283 195.376 42.547 195.64 42.763 195.952C43.003 196.24 43.123 196.516 43.123 196.78C43.123 197.02 43.003 197.296 42.763 197.608C42.547 197.92 42.283 198.196 41.971 198.436C41.659 198.652 41.383 198.76 41.143 198.76ZM66.7798 202.72C68.4118 202.72 69.7078 202.876 70.6678 203.188C71.6518 203.476 72.3478 203.968 72.7558 204.664C73.1878 205.336 73.4038 206.248 73.4038 207.4V220H52.7038V216.76H70.5238V206.356C69.9478 206.212 69.3478 206.116 68.7238 206.068C68.0998 205.996 67.3678 205.96 66.5278 205.96C65.5678 205.96 64.5118 206.032 63.3598 206.176C62.2078 206.32 61.1158 206.536 60.0838 206.824L58.9678 204.16C59.6398 203.824 60.4078 203.56 61.2718 203.368C62.1598 203.152 63.0838 202.996 64.0438 202.9C65.0038 202.78 65.9158 202.72 66.7798 202.72ZM59.0398 218.812C58.3678 218.044 57.9238 217.036 57.7078 215.788C57.4918 214.516 57.3838 213.184 57.3838 211.792C57.3838 210.424 57.5278 209.104 57.8158 207.832C58.1278 206.56 58.5118 205.336 58.9678 204.16L61.6678 204.988C61.2598 206.212 60.9238 207.376 60.6598 208.48C60.3958 209.56 60.2638 210.664 60.2638 211.792C60.2638 212.656 60.2998 213.496 60.3718 214.312C60.4678 215.128 60.6238 215.896 60.8398 216.616C61.0798 217.336 61.4038 217.984 61.8118 218.56L59.0398 218.812ZM93.433 216.76H97.753V220H93.433V216.76ZM88.105 229.324L86.881 226.804C87.817 226.348 88.549 225.832 89.077 225.256C89.629 224.68 90.013 223.972 90.229 223.132C90.469 222.292 90.589 221.248 90.589 220V203.08H93.469V220C93.469 221.584 93.289 222.952 92.929 224.104C92.569 225.28 91.993 226.288 91.201 227.128C90.409 227.968 89.377 228.7 88.105 229.324ZM96.2976 220V216.76H115.81V208.732H103.534C102.43 208.732 101.59 208.48 101.014 207.976C100.438 207.448 100.15 206.68 100.15 205.672C100.15 204.88 100.294 203.992 100.582 203.008C100.87 202.024 101.254 201.016 101.734 199.984C102.238 198.928 102.802 197.932 103.426 196.996C104.074 196.036 104.758 195.196 105.478 194.476L107.926 195.772C107.254 196.492 106.63 197.26 106.054 198.076C105.478 198.868 104.962 199.684 104.506 200.524C104.074 201.364 103.702 202.204 103.39 203.044C103.102 203.884 102.886 204.7 102.742 205.492H114.73C115.762 205.492 116.554 205.612 117.106 205.852C117.682 206.092 118.09 206.5 118.33 207.076C118.57 207.628 118.69 208.42 118.69 209.452V220H96.2976ZM125.895 220V197.32H128.775V220H125.895ZM133.105 220V216.76H145.597C144.949 214.384 144.349 212.464 143.797 211C143.269 209.536 142.729 208.408 142.177 207.616C141.625 206.824 140.989 206.284 140.269 205.996C139.549 205.708 138.673 205.564 137.641 205.564C137.233 205.564 136.777 205.6 136.273 205.672C135.769 205.72 135.313 205.804 134.905 205.924L134.113 202.756C134.737 202.612 135.361 202.504 135.985 202.432C136.609 202.36 137.161 202.324 137.641 202.324C138.913 202.324 139.993 202.42 140.881 202.612C141.793 202.78 142.585 203.152 143.257 203.728C143.953 204.28 144.589 205.108 145.165 206.212C145.741 207.316 146.329 208.792 146.929 210.64C147.553 212.464 148.261 214.744 149.053 217.48V220H133.105ZM138.685 198.76C138.445 198.76 138.169 198.652 137.857 198.436C137.545 198.22 137.269 197.956 137.029 197.644C136.813 197.308 136.705 197.02 136.705 196.78C136.705 196.516 136.813 196.24 137.029 195.952C137.269 195.64 137.545 195.376 137.857 195.16C138.169 194.92 138.445 194.8 138.685 194.8C138.949 194.8 139.225 194.92 139.513 195.16C139.825 195.376 140.089 195.64 140.305 195.952C140.545 196.24 140.665 196.516 140.665 196.78C140.665 197.02 140.545 197.296 140.305 197.608C140.089 197.92 139.825 198.196 139.513 198.436C139.201 198.652 138.925 198.76 138.685 198.76ZM159.122 220C158.09 220 157.238 219.868 156.566 219.604C155.894 219.34 155.366 218.896 154.982 218.272C154.598 217.624 154.322 216.736 154.154 215.608C153.986 214.48 153.902 213.064 153.902 211.36C153.902 209.608 154.01 208.18 154.226 207.076C154.466 205.948 154.862 205.072 155.414 204.448C155.966 203.8 156.734 203.356 157.718 203.116C158.702 202.852 159.95 202.72 161.462 202.72C162.998 202.72 164.33 202.804 165.458 202.972C166.586 203.14 167.762 203.428 168.986 203.836V216.76L167.654 220H159.122ZM164.45 216.76C165.074 216.76 165.506 216.628 165.746 216.364C165.986 216.1 166.106 215.632 166.106 214.96V205.96H158.618C157.97 205.96 157.526 206.092 157.286 206.356C157.07 206.62 156.962 207.148 156.962 207.94V216.76H164.45ZM161.354 229.612L159.554 227.38C160.442 226.684 161.27 225.892 162.038 225.004C162.83 224.116 163.526 223.192 164.126 222.232C164.75 221.272 165.23 220.324 165.566 219.388C165.926 218.428 166.106 217.552 166.106 216.76H168.986C168.986 217.768 168.782 218.86 168.374 220.036C167.99 221.212 167.438 222.388 166.718 223.564C166.022 224.74 165.218 225.844 164.306 226.876C163.394 227.932 162.41 228.844 161.354 229.612ZM209.828 216.76H214.148V220H209.828V216.76ZM187.58 216.76H206.948V197.32H209.828V220H189.164C187.94 220 186.956 219.76 186.212 219.28C185.468 218.8 184.928 218.02 184.592 216.94C184.28 215.836 184.124 214.384 184.124 212.584C184.124 211.504 184.208 210.376 184.376 209.2C184.568 208 184.82 206.992 185.132 206.176L187.868 206.644C187.58 207.604 187.364 208.54 187.22 209.452C187.076 210.364 187.004 211.216 187.004 212.008C187.004 212.992 187.04 213.868 187.112 214.636C187.208 215.38 187.364 216.088 187.58 216.76ZM198.128 203.368L201.224 202.54V204.196L193.016 206.392V204.736L194.6 204.304C194.456 203.992 194.348 203.632 194.276 203.224C194.204 202.792 194.168 202.264 194.168 201.64C194.168 200.296 194.42 199.264 194.924 198.544C195.452 197.824 196.184 197.32 197.12 197.032C198.056 196.744 199.136 196.6 200.36 196.6V198.616C199.688 198.616 199.004 198.688 198.308 198.832C197.612 198.976 197.012 199.192 196.508 199.48L196.472 202.648C196.472 203.08 196.592 203.356 196.832 203.476C197.096 203.572 197.528 203.536 198.128 203.368ZM221.34 216.76H225.66V220H212.7V216.76H218.46V203.08H221.34V216.76ZM217.308 198.76C217.068 198.76 216.792 198.652 216.48 198.436C216.168 198.22 215.892 197.956 215.652 197.644C215.436 197.308 215.328 197.02 215.328 196.78C215.328 196.516 215.436 196.24 215.652 195.952C215.892 195.64 216.168 195.376 216.48 195.16C216.792 194.92 217.068 194.8 217.308 194.8C217.572 194.8 217.848 194.92 218.136 195.16C218.448 195.376 218.712 195.64 218.928 195.952C219.168 196.24 219.288 196.516 219.288 196.78C219.288 197.02 219.168 197.296 218.928 197.608C218.712 197.92 218.448 198.196 218.136 198.436C217.824 198.652 217.548 198.76 217.308 198.76ZM222.492 198.76C222.252 198.76 221.976 198.652 221.664 198.436C221.352 198.22 221.076 197.956 220.836 197.644C220.62 197.308 220.512 197.02 220.512 196.78C220.512 196.516 220.62 196.24 220.836 195.952C221.076 195.64 221.352 195.376 221.664 195.16C221.976 194.92 222.252 194.8 222.492 194.8C222.756 194.8 223.032 194.92 223.32 195.16C223.632 195.376 223.896 195.64 224.112 195.952C224.352 196.24 224.472 196.516 224.472 196.78C224.472 197.02 224.352 197.296 224.112 197.608C223.896 197.92 223.632 198.196 223.32 198.436C223.008 198.652 222.732 198.76 222.492 198.76ZM224.231 216.76H229.991C229.871 216.088 229.775 215.284 229.703 214.348C229.655 213.412 229.631 212.176 229.631 210.64C229.631 209.08 229.739 207.796 229.955 206.788C230.171 205.756 230.555 204.952 231.107 204.376C231.659 203.776 232.427 203.356 233.411 203.116C234.395 202.852 235.655 202.72 237.191 202.72C238.511 202.72 239.735 202.804 240.863 202.972C241.991 203.14 243.275 203.428 244.715 203.836V220H224.231V216.76ZM240.179 216.76C240.803 216.76 241.235 216.628 241.475 216.364C241.715 216.1 241.835 215.632 241.835 214.96V206.032H234.347C233.699 206.032 233.255 206.164 233.015 206.428C232.799 206.692 232.691 207.22 232.691 208.012V216.76H240.179ZM234.599 198.76C234.359 198.76 234.083 198.652 233.771 198.436C233.459 198.22 233.183 197.956 232.943 197.644C232.727 197.308 232.619 197.02 232.619 196.78C232.619 196.516 232.727 196.24 232.943 195.952C233.183 195.64 233.459 195.376 233.771 195.16C234.083 194.92 234.359 194.8 234.599 194.8C234.863 194.8 235.139 194.92 235.427 195.16C235.739 195.376 236.003 195.64 236.219 195.952C236.459 196.24 236.579 196.516 236.579 196.78C236.579 197.02 236.459 197.296 236.219 197.608C236.003 197.92 235.739 198.196 235.427 198.436C235.115 198.652 234.839 198.76 234.599 198.76ZM239.783 198.76C239.543 198.76 239.267 198.652 238.955 198.436C238.643 198.22 238.367 197.956 238.127 197.644C237.911 197.308 237.803 197.02 237.803 196.78C237.803 196.516 237.911 196.24 238.127 195.952C238.367 195.64 238.643 195.376 238.955 195.16C239.267 194.92 239.543 194.8 239.783 194.8C240.047 194.8 240.323 194.92 240.611 195.16C240.923 195.376 241.187 195.64 241.403 195.952C241.643 196.24 241.763 196.516 241.763 196.78C241.763 197.02 241.643 197.296 241.403 197.608C241.187 197.92 240.923 198.196 240.611 198.436C240.299 198.652 240.023 198.76 239.783 198.76ZM256.61 220C255.578 220 254.726 219.868 254.054 219.604C253.382 219.34 252.854 218.896 252.47 218.272C252.086 217.624 251.81 216.736 251.642 215.608C251.474 214.48 251.39 213.064 251.39 211.36C251.39 209.608 251.498 208.18 251.714 207.076C251.954 205.948 252.35 205.072 252.902 204.448C253.454 203.8 254.222 203.356 255.206 203.116C256.19 202.852 257.438 202.72 258.95 202.72C260.486 202.72 261.818 202.804 262.946 202.972C264.074 203.14 265.25 203.428 266.474 203.836V216.76L265.142 220H256.61ZM261.938 216.76C262.562 216.76 262.994 216.628 263.234 216.364C263.474 216.1 263.594 215.632 263.594 214.96V205.96H256.106C255.458 205.96 255.014 206.092 254.774 206.356C254.558 206.62 254.45 207.148 254.45 207.94V216.76H261.938ZM258.842 229.612L257.042 227.38C257.93 226.684 258.758 225.892 259.526 225.004C260.318 224.116 261.014 223.192 261.614 222.232C262.238 221.272 262.718 220.324 263.054 219.388C263.414 218.428 263.594 217.552 263.594 216.76H266.474C266.474 217.768 266.27 218.86 265.862 220.036C265.478 221.212 264.926 222.388 264.206 223.564C263.51 224.74 262.706 225.844 261.794 226.876C260.882 227.932 259.898 228.844 258.842 229.612ZM286.652 216.76H290.972V220H286.652V216.76ZM281.324 229.324L280.1 226.804C281.036 226.348 281.768 225.832 282.296 225.256C282.848 224.68 283.232 223.972 283.448 223.132C283.688 222.292 283.808 221.248 283.808 220V203.08H286.688V220C286.688 221.584 286.508 222.952 286.148 224.104C285.788 225.28 285.212 226.288 284.42 227.128C283.628 227.968 282.596 228.7 281.324 229.324ZM289.516 216.76H295.276C295.156 216.088 295.06 215.284 294.988 214.348C294.94 213.412 294.916 212.176 294.916 210.64C294.916 209.08 295.024 207.796 295.24 206.788C295.456 205.756 295.84 204.952 296.392 204.376C296.944 203.776 297.712 203.356 298.696 203.116C299.68 202.852 300.94 202.72 302.476 202.72C303.796 202.72 305.02 202.804 306.148 202.972C307.276 203.14 308.56 203.428 310 203.836V220H289.516V216.76ZM305.464 216.76C306.088 216.76 306.52 216.628 306.76 216.364C307 216.1 307.12 215.632 307.12 214.96V206.032H299.632C298.984 206.032 298.54 206.164 298.3 206.428C298.084 206.692 297.976 207.22 297.976 208.012V216.76H305.464ZM302.476 198.76C302.236 198.76 301.96 198.652 301.648 198.436C301.336 198.22 301.06 197.956 300.82 197.644C300.604 197.308 300.496 197.02 300.496 196.78C300.496 196.516 300.604 196.24 300.82 195.952C301.06 195.64 301.336 195.376 301.648 195.16C301.96 194.92 302.236 194.8 302.476 194.8C302.74 194.8 303.016 194.92 303.304 195.16C303.616 195.376 303.88 195.64 304.096 195.952C304.336 196.24 304.456 196.516 304.456 196.78C304.456 197.02 304.336 197.296 304.096 197.608C303.88 197.92 303.616 198.196 303.304 198.436C302.992 198.652 302.716 198.76 302.476 198.76ZM321.895 220C320.863 220 320.011 219.868 319.339 219.604C318.667 219.34 318.139 218.896 317.755 218.272C317.371 217.624 317.095 216.736 316.927 215.608C316.759 214.48 316.675 213.064 316.675 211.36C316.675 209.608 316.783 208.18 316.999 207.076C317.239 205.948 317.635 205.072 318.187 204.448C318.739 203.8 319.507 203.356 320.491 203.116C321.475 202.852 322.723 202.72 324.235 202.72C325.771 202.72 327.103 202.804 328.231 202.972C329.359 203.14 330.535 203.428 331.759 203.836V216.76L330.427 220H321.895ZM327.223 216.76C327.847 216.76 328.279 216.628 328.519 216.364C328.759 216.1 328.879 215.632 328.879 214.96V205.96H321.391C320.743 205.96 320.299 206.092 320.059 206.356C319.843 206.62 319.735 207.148 319.735 207.94V216.76H327.223ZM324.127 229.612L322.327 227.38C323.215 226.684 324.043 225.892 324.811 225.004C325.603 224.116 326.299 223.192 326.899 222.232C327.523 221.272 328.003 220.324 328.339 219.388C328.699 218.428 328.879 217.552 328.879 216.76H331.759C331.759 217.768 331.555 218.86 331.147 220.036C330.763 221.212 330.211 222.388 329.491 223.564C328.795 224.74 327.991 225.844 327.079 226.876C326.167 227.932 325.183 228.844 324.127 229.612ZM130.266 255.944L129.186 240.428C129.186 240.236 129.234 240.08 129.33 239.96C129.45 239.84 129.69 239.78 130.05 239.78H132.714C133.074 239.78 133.314 239.84 133.434 239.96C133.554 240.08 133.614 240.236 133.614 240.428L132.534 255.944H130.266ZM129.078 260.768C129.078 259.904 129.222 259.28 129.51 258.896C129.822 258.488 130.458 258.284 131.418 258.284C132.378 258.284 133.002 258.488 133.29 258.896C133.602 259.28 133.758 259.904 133.758 260.768C133.758 261.656 133.602 262.292 133.29 262.676C133.002 263.036 132.378 263.216 131.418 263.216C130.458 263.216 129.822 263.036 129.51 262.676C129.222 262.292 129.078 261.656 129.078 260.768ZM164.142 259.76H168.462V263H164.142V259.76ZM141.894 259.76H161.262V240.32H164.142V263H143.478C142.254 263 141.27 262.76 140.526 262.28C139.782 261.8 139.242 261.02 138.906 259.94C138.594 258.836 138.438 257.384 138.438 255.584C138.438 254.504 138.522 253.376 138.69 252.2C138.882 251 139.134 249.992 139.446 249.176L142.182 249.644C141.894 250.604 141.678 251.54 141.534 252.452C141.39 253.364 141.318 254.216 141.318 255.008C141.318 255.992 141.354 256.868 141.426 257.636C141.522 258.38 141.678 259.088 141.894 259.76ZM152.442 246.368L155.538 245.54V247.196L147.33 249.392V247.736L148.914 247.304C148.77 246.992 148.662 246.632 148.59 246.224C148.518 245.792 148.482 245.264 148.482 244.64C148.482 243.296 148.734 242.264 149.238 241.544C149.766 240.824 150.498 240.32 151.434 240.032C152.37 239.744 153.45 239.6 154.674 239.6V241.616C154.002 241.616 153.318 241.688 152.622 241.832C151.926 241.976 151.326 242.192 150.822 242.48L150.786 245.648C150.786 246.08 150.906 246.356 151.146 246.476C151.41 246.572 151.842 246.536 152.442 246.368ZM167.014 263V259.76H172.774V246.08H175.654V263H167.014ZM174.214 241.76C173.974 241.76 173.698 241.652 173.386 241.436C173.074 241.22 172.798 240.956 172.558 240.644C172.342 240.308 172.234 240.02 172.234 239.78C172.234 239.516 172.342 239.24 172.558 238.952C172.798 238.64 173.074 238.376 173.386 238.16C173.698 237.92 173.974 237.8 174.214 237.8C174.478 237.8 174.754 237.92 175.042 238.16C175.354 238.376 175.618 238.64 175.834 238.952C176.074 239.24 176.194 239.516 176.194 239.78C176.194 240.02 176.074 240.296 175.834 240.608C175.618 240.92 175.354 241.196 175.042 241.436C174.73 241.652 174.454 241.76 174.214 241.76ZM182.866 263V240.32H185.746V259.76H190.066V263H182.866ZM211.027 259.76H215.347V263H211.027V259.76ZM188.635 263V259.76H208.147V251.732H195.871C194.767 251.732 193.927 251.48 193.351 250.976C192.775 250.448 192.487 249.68 192.487 248.672C192.487 247.88 192.631 246.992 192.919 246.008C193.207 245.024 193.591 244.016 194.071 242.984C194.575 241.928 195.139 240.932 195.763 239.996C196.411 239.036 197.095 238.196 197.815 237.476L200.263 238.772C199.591 239.492 198.967 240.26 198.391 241.076C197.815 241.868 197.299 242.684 196.843 243.524C196.411 244.364 196.039 245.204 195.727 246.044C195.439 246.884 195.223 247.7 195.079 248.492H207.067C208.099 248.492 208.891 248.612 209.443 248.852C210.019 249.092 210.427 249.5 210.667 250.076C210.907 250.628 211.027 251.42 211.027 252.452V263H188.635ZM227.989 245.72C229.621 245.72 230.917 245.876 231.877 246.188C232.861 246.476 233.557 246.968 233.965 247.664C234.397 248.336 234.613 249.248 234.613 250.4V263H213.913V259.76H231.733V249.356C231.157 249.212 230.557 249.116 229.933 249.068C229.309 248.996 228.577 248.96 227.737 248.96C226.777 248.96 225.721 249.032 224.569 249.176C223.417 249.32 222.325 249.536 221.293 249.824L220.177 247.16C220.849 246.824 221.617 246.56 222.481 246.368C223.369 246.152 224.293 245.996 225.253 245.9C226.213 245.78 227.125 245.72 227.989 245.72ZM220.249 261.812C219.577 261.044 219.133 260.036 218.917 258.788C218.701 257.516 218.593 256.184 218.593 254.792C218.593 253.424 218.737 252.104 219.025 250.832C219.337 249.56 219.721 248.336 220.177 247.16L222.877 247.988C222.469 249.212 222.133 250.376 221.869 251.48C221.605 252.56 221.473 253.664 221.473 254.792C221.473 255.656 221.509 256.496 221.581 257.312C221.677 258.128 221.833 258.896 222.049 259.616C222.289 260.336 222.613 260.984 223.021 261.56L220.249 261.812Z" fill="white"/>
<path d="M225 60C225 71.4043 220.47 82.3415 212.406 90.4056C204.342 98.4697 193.404 103 182 103C170.596 103 159.658 98.4697 151.594 90.4056C143.53 82.3415 139 71.4043 139 60C139 48.5957 143.53 37.6585 151.594 29.5944C159.658 21.5303 170.596 17 182 17C193.404 17 204.342 21.5303 212.406 29.5944C220.47 37.6585 225 48.5957 225 60ZM182 35.8125C182 35.0997 181.717 34.4162 181.213 33.9122C180.709 33.4081 180.025 33.125 179.312 33.125C178.6 33.125 177.916 33.4081 177.412 33.9122C176.908 34.4162 176.625 35.0997 176.625 35.8125V65.375C176.625 65.8487 176.751 66.314 176.988 66.7236C177.226 67.1333 177.568 67.4728 177.979 67.7077L196.792 78.4577C197.409 78.7914 198.133 78.8703 198.808 78.6777C199.482 78.4851 200.055 78.0361 200.403 77.4268C200.751 76.8175 200.847 76.0962 200.671 75.417C200.494 74.7379 200.059 74.1547 199.458 73.7923L182 63.8162V35.8125Z" fill="#009FD6"/>
</svg>
