<svg width="120" height="120" viewBox="0 0 120 120" fill="none" xmlns="http://www.w3.org/2000/svg">
<path d="M45 51.6359L50.1844 62H39.8156L45 51.6359ZM108.75 24.5V99.5C108.75 100.14 108.587 100.769 108.276 101.327C107.965 101.886 107.516 102.356 106.972 102.692C106.428 103.029 105.807 103.22 105.168 103.249C104.529 103.278 103.894 103.142 103.322 102.856L90 96.1906L76.6781 102.856C76.1571 103.117 75.5826 103.253 75 103.253C74.4174 103.253 73.8429 103.117 73.3219 102.856L60 96.1906L46.6781 102.856C46.1571 103.117 45.5826 103.253 45 103.253C44.4174 103.253 43.8429 103.117 43.3219 102.856L30 96.1906L16.6781 102.856C16.1062 103.142 15.4706 103.278 14.8317 103.249C14.1928 103.22 13.5718 103.029 13.0279 102.692C12.4839 102.356 12.035 101.886 11.7238 101.327C11.4127 100.769 11.2495 100.14 11.25 99.5V24.5C11.25 22.5109 12.0402 20.6032 13.4467 19.1967C14.8532 17.7902 16.7609 17 18.75 17H101.25C103.239 17 105.147 17.7902 106.553 19.1967C107.96 20.6032 108.75 22.5109 108.75 24.5ZM63.3563 71.5719L48.3563 41.5719C48.0452 40.9478 47.5664 40.4229 46.9735 40.0559C46.3807 39.689 45.6972 39.4946 45 39.4946C44.3028 39.4946 43.6193 39.689 43.0265 40.0559C42.4336 40.4229 41.9548 40.9478 41.6437 41.5719L26.6438 71.5719C26.4234 72.0126 26.292 72.4925 26.257 72.984C26.2221 73.4755 26.2843 73.9691 26.4402 74.4366C26.596 74.9041 26.8424 75.3363 27.1652 75.7086C27.4881 76.0808 27.8811 76.3859 28.3219 76.6062C28.7626 76.8266 29.2425 76.958 29.734 76.993C30.2255 77.0279 30.7191 76.9657 31.1866 76.8098C31.6541 76.654 32.0863 76.4076 32.4586 76.0848C32.8308 75.7619 33.1359 75.3689 33.3563 74.9281L36.0656 69.5H53.9344L56.6437 74.9281C56.8641 75.3689 57.1692 75.7619 57.5414 76.0848C57.9137 76.4076 58.3459 76.654 58.8134 76.8098C59.2809 76.9657 59.7745 77.0279 60.266 76.993C60.7575 76.958 61.2374 76.8266 61.6781 76.6062C62.1189 76.3859 62.5119 76.0808 62.8348 75.7086C63.1576 75.3363 63.404 74.9041 63.5598 74.4366C63.7157 73.9691 63.7779 73.4755 63.743 72.984C63.708 72.4925 63.5766 72.0126 63.3563 71.5719ZM97.5 58.25C97.5 57.2554 97.1049 56.3016 96.4017 55.5983C95.6984 54.8951 94.7446 54.5 93.75 54.5H86.25V47C86.25 46.0054 85.8549 45.0516 85.1517 44.3483C84.4484 43.6451 83.4946 43.25 82.5 43.25C81.5054 43.25 80.5516 43.6451 79.8483 44.3483C79.1451 45.0516 78.75 46.0054 78.75 47V54.5H71.25C70.2554 54.5 69.3016 54.8951 68.5983 55.5983C67.8951 56.3016 67.5 57.2554 67.5 58.25C67.5 59.2446 67.8951 60.1984 68.5983 60.9016C69.3016 61.6049 70.2554 62 71.25 62H78.75V69.5C78.75 70.4946 79.1451 71.4484 79.8483 72.1516C80.5516 72.8549 81.5054 73.25 82.5 73.25C83.4946 73.25 84.4484 72.8549 85.1517 72.1516C85.8549 71.4484 86.25 70.4946 86.25 69.5V62H93.75C94.7446 62 95.6984 61.6049 96.4017 60.9016C97.1049 60.1984 97.5 59.2446 97.5 58.25Z" fill="#009FD6"/>
</svg>
