<svg width="496" height="103" viewBox="0 0 496 103" fill="none" xmlns="http://www.w3.org/2000/svg">
<path d="M116.453 90.7754C118.076 90.7755 119.473 91.3515 120.65 92.5088C121.839 93.6777 122.437 95.069 122.437 96.6826C122.437 98.3248 121.839 99.7214 120.65 100.879C119.473 102.048 118.076 102.636 116.453 102.636C114.783 102.636 113.351 102.048 112.162 100.879C110.968 99.7214 110.376 98.3248 110.376 96.6826C110.376 95.069 110.968 93.6777 112.162 92.5088C113.351 91.3513 114.783 90.7754 116.453 90.7754ZM22.3818 90.0459C24.1097 90.0459 25.5941 90.6556 26.835 91.8701C28.0873 93.0845 28.7138 94.5269 28.7139 96.2031C28.7139 97.9022 28.0873 99.3565 26.835 100.56C25.5941 101.774 24.1097 102.385 22.3818 102.385C20.6771 102.385 19.2157 101.774 17.998 100.56C16.7747 99.3565 16.166 97.9022 16.166 96.2031C16.1661 94.527 16.7748 93.0845 17.998 91.8701C19.2157 90.6556 20.6771 90.0459 22.3818 90.0459ZM41.9336 90.0459C43.6614 90.0459 45.1459 90.6557 46.3867 91.8701C47.6391 93.0845 48.2655 94.5269 48.2656 96.2031C48.2656 97.9023 47.6392 99.3565 46.3867 100.56C45.1459 101.774 43.6615 102.385 41.9336 102.385C40.229 102.385 38.7683 101.774 37.5508 100.56C36.3273 99.3565 35.7178 97.9023 35.7178 96.2031C35.7179 94.5269 36.3274 93.0845 37.5508 91.8701C38.7683 90.6558 40.2291 90.046 41.9336 90.0459ZM351.879 0C353.189 12.6525 353.85 27.8823 353.85 45.6836L353.804 55.3545C355.253 58.0344 358.535 59.3691 363.638 59.3691H363.847L363.846 59.376L376.808 59.209C376.448 55.2405 376.234 52.6519 376.158 51.4316L375.996 46.0947L372.98 47.5088L369.571 28.0762C383.888 19.8539 395.792 15.7373 405.29 15.7373C409.001 15.7374 412.253 16.4154 415.054 17.7666C424.128 22.237 428.669 30.5511 428.669 42.6963C428.669 48.8715 427.834 54.5222 426.164 59.6426L436.007 59.4619V59.3691L449.506 59.4141C450.074 51.6938 450.364 44.6578 450.364 38.3174C450.364 24.6955 449.419 11.9228 447.534 0H467.782C469.093 12.6526 469.754 27.8823 469.754 45.6836C469.754 53.1646 469.626 60.9653 469.383 69.085V69.4043C469.383 74.3935 466.101 77.3526 459.549 78.2764L436.054 78.1855H363.684L355.659 78.2764C349.351 78.2764 344.41 75.8989 340.838 71.1377C338.53 75.8702 332.564 78.2305 322.933 78.2305L316.764 78.2764V77.5459C315.23 77.2702 313.653 76.9074 312.036 76.4521C310.969 80.7399 309.955 83.6711 308.998 85.2334C306.272 89.7663 296.519 93.7173 279.728 97.0928L270.172 81.0137C274.173 80.7742 278.139 80.3183 282.07 79.6455C286.784 78.813 290.38 77.398 292.855 75.4023V69.8828L288.24 69.9287C269.917 69.9287 260.756 61.9344 260.756 45.9346L260.825 44.6348C262.089 30.0377 273.385 22.7393 294.711 22.7393C300.382 22.7393 306.088 23.1607 311.828 23.9932C312.785 32.4663 313.318 42.8676 313.428 55.1953C314.773 57.9778 318.044 59.3691 323.239 59.3691H333.602C334.17 51.6773 334.46 44.6579 334.46 38.3174C334.46 24.6955 333.515 11.9227 331.631 0H351.879ZM118.192 22.123C120.744 22.1231 123.185 22.2261 125.521 22.4199C142.203 25.0372 150.547 34.8844 150.547 51.9561C150.547 52.9311 150.211 55.4006 149.55 59.3691H159.848V59.4062L160.595 59.4141C165.291 59.414 168.231 58.0802 169.408 55.4004C169.733 54.568 169.895 53.5187 169.895 52.2529C169.895 48.3927 168.527 42.4225 165.79 34.3486L186.246 30.9961C187.452 36.7778 188.056 43.1183 188.056 50.0176C187.992 51.768 187.835 53.8036 187.592 56.1299C189.465 58.1776 192.411 59.2513 196.425 59.3584L203.69 59.3232L203.645 54.876C203.645 33.9098 213.165 23.4238 232.219 23.4238H233.656C248.465 24.6726 255.876 36.709 255.876 59.5283C255.876 65.658 255.447 71.8109 254.601 77.9805L197.401 78.1738L197.402 78.1855C197.159 78.1855 196.917 78.1816 196.676 78.1768L194.135 78.1855V78.0312C188.905 77.5322 184.351 75.8064 180.471 72.8486C175.676 76.4064 170.22 78.1855 164.097 78.1855H71.3662L73.709 47.3037L63.7822 48.5117C63.5619 71.81 52.8233 83.5798 31.5664 83.8193C10.5183 83.654 0 73.9543 0 54.7158C1.03999e-05 47.2691 1.17125 39.1833 3.52539 30.4707L23.9824 34.3936C20.9673 43.5166 19.459 51.0436 19.459 56.9736C19.459 64.9906 23.4951 69.0624 31.5664 69.1992C40.8901 69.1251 45.5516 64.2441 45.5518 54.5566V50.7471L42.583 51.0664L41.5625 32.5693L91.1973 29.8555L91.4229 59.3311L127.539 59.4141C129.638 56.529 130.693 53.9747 130.693 51.751C130.693 45.2279 127.168 41.7093 120.117 41.1904C119.05 41.1163 117.984 41.0772 116.917 41.0771C110.469 41.0771 104.589 42.0745 99.2891 44.0645L99.0107 24.0391C105.18 22.7618 111.571 22.123 118.192 22.123ZM493.966 0C495.276 12.6526 495.938 27.8823 495.938 45.6836C495.938 53.1646 495.81 60.9653 495.566 69.085V69.4043C495.566 74.3935 492.285 77.3526 485.732 78.2764L476.386 78.4365L476.896 57.7949C477.081 53.7693 477.174 49.732 477.174 45.6836C477.174 29.4788 476.038 14.2491 473.765 0H493.966ZM289.191 39.001C283.839 39.001 281.166 42.2059 281.166 48.6035C281.166 54.7331 285.417 58.6049 293.923 60.2129L294.34 39.7764C291.725 39.2633 290.009 39.0011 289.191 39.001ZM226.443 42.6504C219.7 42.6504 215.589 48.3467 214.104 59.7334L239.037 60.1445C239.455 57.8524 239.664 56.0561 239.664 54.7617C239.664 47.389 235.802 43.3919 228.09 42.7646C227.545 42.6905 227 42.6504 226.443 42.6504ZM401.254 37.5186C399.613 37.5186 396.638 38.2028 392.324 39.5713C392.429 45.0794 392.841 51.4715 393.554 58.7529C397.154 58.2227 399.596 57.7832 400.883 57.4297C407.249 55.97 410.438 52.8908 410.438 48.1924C410.438 47.6616 410.189 45.9453 409.696 43.0381C409.198 40.136 406.739 38.3168 402.321 37.5869C401.962 37.5413 401.608 37.5186 401.254 37.5186ZM175.206 7.95996C176.934 7.95996 178.418 8.5643 179.659 9.76172C180.894 10.9648 181.515 12.419 181.515 14.1182C181.515 15.8228 180.894 17.2763 179.659 18.4736C178.418 19.6768 176.934 20.2764 175.206 20.2764C173.501 20.2763 172.04 19.6767 170.822 18.4736C169.599 17.2764 168.99 15.8227 168.99 14.1182C168.99 12.4191 169.599 10.9648 170.822 9.76172C172.04 8.56434 173.501 7.96 175.206 7.95996Z" fill="#21B7EB"/>
</svg>
