<svg width="449" height="144" viewBox="0 0 449 144" fill="none" xmlns="http://www.w3.org/2000/svg">
<path fill-rule="evenodd" clip-rule="evenodd" d="M40.9138 123.105C44.6456 122.884 47.8591 123.105 50.5544 123.769C53.2497 124.461 55.427 125.401 57.0856 126.59C58.7702 127.766 59.9889 128.942 60.7145 130.131C61.4658 131.348 61.7637 132.357 61.5954 133.173C61.4529 134.017 60.8435 134.446 59.7809 134.446C56.0102 134.446 52.5764 134.903 49.4665 135.83C46.3824 136.742 43.5701 137.835 41.0173 139.093C38.4906 140.338 36.1453 141.5 33.9684 142.579C31.7138 143.685 29.718 144.141 27.9558 143.961C26.1935 143.809 24.7157 143.215 23.5495 142.192C22.3703 141.196 21.5407 139.896 21.0612 138.319C20.6077 136.77 20.5432 135.165 20.8542 133.505C21.1652 131.846 21.9036 130.31 23.0827 128.914C24.2878 127.503 25.9858 126.452 28.1628 125.76C32.9573 124.211 37.2077 123.326 40.9138 123.105ZM400.239 0.00927326C402.273 0.0922631 404.256 0.617938 406.2 1.61377C408.169 2.6096 409.906 4.14479 411.435 6.20556C412.951 8.28018 414.092 10.9634 414.856 14.2827C416.022 18.6395 416.981 23.3006 417.707 28.2798C418.182 31.4266 418.537 34.6178 418.77 37.853C418.894 36.5234 419.033 35.1947 419.191 33.8677C419.735 29.4835 420.512 25.2236 421.523 21.0884C422.521 16.9254 423.778 13.0111 425.307 9.35986C425.852 7.74186 426.577 6.52452 427.484 5.70849C428.417 4.90629 429.364 4.47752 430.336 4.43603C431.333 4.40847 432.253 4.6985 433.083 5.3208C433.912 5.95695 434.507 6.84219 434.896 7.97607C435.311 9.08249 435.363 10.4105 435.052 11.9595C433.77 18.2387 433.251 24.2831 433.497 30.106C433.769 35.9011 434.599 41.586 435.985 47.146C437.359 52.7198 439.108 58.2661 441.22 63.7983C443.359 69.303 445.691 74.8634 448.217 80.5063C449.008 82.5394 449.202 84.4343 448.788 86.2046C448.399 87.9748 447.569 89.5234 446.299 90.8511C445.017 92.1511 443.475 93.1478 441.687 93.8393C439.886 94.5032 437.968 94.8071 435.933 94.7241C433.886 94.655 431.903 94.1155 429.972 93.1196C428.029 92.1238 426.305 90.6024 424.789 88.5278C423.26 86.467 422.119 83.77 421.368 80.4507C420.603 77.726 419.968 74.5861 419.45 71.0454C418.993 67.7586 418.648 64.2571 418.415 60.519C417.934 64.8407 417.149 68.9368 416.049 72.8159C414.805 77.1726 413.119 81.0314 411.02 84.3784C408.947 87.6977 406.407 90.2982 403.401 92.1792C400.421 94.0602 396.922 95.0005 392.879 95.0005C390.209 95.0005 387.76 94.2816 385.518 92.8433C383.263 91.3772 381.319 89.4123 379.661 86.978C378.323 84.961 377.229 82.7584 376.364 80.3852C373.878 82.8517 371.179 85.0714 368.265 87.0347C364.598 89.4688 360.763 91.3917 356.758 92.7886C352.741 94.1578 348.737 94.8354 344.733 94.8354C339.718 94.8354 335.416 93.7842 331.827 91.6821C329.733 90.4309 327.928 88.8859 326.41 87.0552C324.74 89.1284 322.835 90.8376 320.691 92.1792C317.711 94.0601 314.212 95.0005 310.169 95.0005C308.653 95.0004 307.209 94.7677 305.834 94.3042C305.31 97.4153 304.566 100.432 303.588 103.354C302.266 107.365 300.503 111.016 298.3 114.308C296.149 117.544 293.584 120.352 290.578 122.717C287.597 125.11 284.227 126.949 280.469 128.25C276.738 129.577 272.643 130.242 268.185 130.242C265.801 130.242 263.728 129.771 261.966 128.858C260.203 127.973 258.804 126.756 257.767 125.207C256.757 123.685 256.069 122.026 255.693 120.228C255.304 118.458 255.291 116.659 255.641 114.861C255.978 113.091 256.652 111.445 257.663 109.937C258.699 108.416 260.06 107.198 261.758 106.286C263.481 105.359 265.516 104.903 267.875 104.903C274.328 104.903 279.796 103.99 284.254 102.192C288.711 100.422 291.783 97.6551 293.48 93.8931C290.5 94.7506 287.687 95.2763 285.031 95.4976C282.362 95.7188 279.874 95.6635 277.567 95.3315C273.965 94.8198 270.777 93.7134 267.978 92.0122C265.205 90.2834 262.82 88.14 260.825 85.5952C258.816 83.0226 257.197 80.1728 255.953 77.0747C254.735 73.9489 253.905 70.7124 253.465 67.3931C253.05 64.0461 252.998 60.7267 253.309 57.4351C253.646 54.1571 254.397 51.0585 255.538 48.1401C256.678 45.2358 258.195 42.6635 260.099 40.4507C262.03 38.2378 264.362 36.5223 267.096 35.3052C269.818 34.0604 272.967 33.4797 276.531 33.5903C280.081 33.701 283.372 34.5728 286.379 36.1909C289.385 37.7814 292.08 39.9802 294.465 42.7739C296.849 45.5816 298.897 48.8322 300.633 52.5112C302.357 56.204 303.717 60.1457 304.728 64.3501C305.765 68.5547 306.413 72.9117 306.698 77.4067C306.767 78.5487 306.81 79.6865 306.829 80.8198C307.282 80.8885 307.738 80.9322 308.199 80.9477C310.272 80.9892 312.19 80.5051 313.953 79.5093C315.741 78.4858 317.193 76.9373 318.307 74.8628C319.448 72.802 320.017 70.1875 320.017 67.0063C319.978 60.8516 319.266 54.8625 317.892 49.0259C316.545 43.2031 314.743 37.4354 312.502 31.7095C310.286 25.9559 307.862 20.1328 305.245 14.227C304.442 12.2079 304.234 10.2991 304.623 8.5288C305.037 6.75856 305.88 5.23705 307.163 3.93701C308.433 2.65081 309.975 1.65505 311.776 0.949703C313.603 0.258249 315.521 -0.0598209 317.529 0.00927326C319.563 0.0922581 321.546 0.618002 323.49 1.61377C325.46 2.60959 327.196 4.14477 328.725 6.20556C330.241 8.28018 331.382 10.9633 332.146 14.2827C333.312 18.6395 334.272 23.3006 334.998 28.2798C335.749 33.2589 336.203 38.3489 336.345 43.5493C336.514 48.7497 336.358 53.8397 335.879 58.8188C335.425 63.7702 334.583 68.4316 333.339 72.8159C332.735 74.929 332.026 76.924 331.218 78.8013C331.583 78.9989 331.958 79.1806 332.344 79.3442C334.586 80.2709 337.023 80.6584 339.653 80.5063C342.309 80.368 344.992 79.7319 347.687 78.6255C350.383 77.4913 352.923 75.9008 355.307 73.8677C357.692 71.8069 359.739 69.3725 361.475 66.5649C360.296 64.8778 359.35 63.6605 358.625 62.9136C357.899 62.1392 357.186 61.7242 356.5 61.6411C355.839 61.5305 354.918 61.627 353.752 61.9175C351.601 62.5535 349.67 62.5123 347.947 61.8071C346.249 61.1156 344.849 59.9538 343.748 58.3218C342.633 56.6621 341.96 54.6977 341.726 52.4019C341.48 50.0783 341.753 47.5886 342.556 44.9331C343.386 42.2499 344.837 39.5388 346.91 36.8003C348.465 34.8086 350.396 33.1212 352.716 31.7104C355.061 30.2721 357.614 29.1382 360.386 28.2808C363.185 27.4371 366.037 26.8976 368.939 26.6763C371.842 26.4273 374.615 26.4827 377.285 26.8423C379.941 27.1742 382.312 27.8378 384.385 28.8335C386.485 29.8017 388.131 31.0883 389.31 32.7065C390.515 34.3385 391.072 36.2888 390.968 38.5708L389.88 56.2192C389.18 60.2024 387.819 64.1025 385.785 67.8921C384.365 70.529 382.721 73.0325 380.844 75.3989C382.039 77.0003 383.421 78.261 385 79.1782C386.892 80.2847 388.861 80.8786 390.909 80.9477C392.982 80.9892 394.9 80.5051 396.663 79.5093C398.451 78.4858 399.902 76.9371 401.016 74.8628C402.157 72.802 402.727 70.1875 402.727 67.0063C402.688 60.8516 401.976 54.8625 400.602 49.0259C399.255 43.2031 397.452 37.4354 395.211 31.7095C392.995 25.9559 390.572 20.1327 387.955 14.227C387.151 12.2078 386.944 10.2991 387.333 8.5288C387.747 6.75865 388.589 5.237 389.872 3.93701C391.142 2.6508 392.684 1.65508 394.485 0.949703C396.312 0.258152 398.23 -0.0598808 400.239 0.00927326ZM114.064 102.856C115.723 102.856 117.226 103.271 118.574 104.128C119.922 104.972 120.984 106.12 121.788 107.558C122.578 108.997 122.98 110.601 122.98 112.372C122.98 114.1 122.578 115.691 121.788 117.129C120.984 118.595 119.922 119.757 118.574 120.615C117.226 121.458 115.723 121.887 114.064 121.887C112.47 121.887 110.981 121.458 109.607 120.615C108.259 119.757 107.171 118.595 106.341 117.129C105.538 115.691 105.149 114.1 105.149 112.372C105.149 110.601 105.538 108.997 106.341 107.558C107.171 106.12 108.26 104.972 109.607 104.128C110.981 103.271 112.47 102.856 114.064 102.856ZM99.2399 27.062C101.417 26.2183 103.905 25.9837 106.704 26.3433C109.114 26.6475 111.421 27.4491 113.598 28.7769C115.775 30.0769 117.823 31.7091 119.766 33.7007C121.697 35.6923 123.563 37.8507 125.364 40.1743C127.191 42.4701 128.915 44.8071 130.548 47.1997C132.206 49.5647 133.813 51.7918 135.368 53.894C136.949 55.9963 138.504 57.8084 140.033 59.3159C141.588 60.8373 143.117 61.9025 144.646 62.5249C145.683 61.7227 146.681 60.9205 147.653 60.146C148.651 59.3438 149.597 58.5132 150.504 57.6558C151.709 56.5909 152.966 55.9685 154.288 55.7749C155.596 55.5952 156.84 55.7613 158.019 56.2729C159.224 56.757 160.274 57.518 161.181 58.5415C162.114 59.5788 162.749 60.796 163.099 62.1929C163.475 63.6035 163.475 65.111 163.099 66.729C162.749 68.3196 161.92 69.9384 160.611 71.5981C159.289 73.2301 157.397 74.7928 154.909 76.3003C153.705 77.0122 152.495 77.7048 151.279 78.3823C152.526 78.969 153.815 79.4555 155.143 79.8423C157.45 80.4785 159.717 80.7553 161.933 80.6724C164.175 80.5617 166.209 80.0634 168.049 79.1782C169.877 78.2654 171.341 76.8963 172.456 75.0845C173.181 73.5769 173.505 72.1383 173.44 70.769C173.401 69.4137 173.091 68.0857 172.508 66.7856C171.95 65.4995 171.276 64.2135 170.486 62.9136C169.683 61.6273 168.879 60.2994 168.049 58.9302C167.22 57.5332 166.521 56.0805 165.976 54.5591C165.458 53.0516 165.199 51.4335 165.199 49.6909C165.199 47.0354 165.614 44.7389 166.443 42.7749C167.272 40.8249 168.387 39.2209 169.812 37.9624C171.225 36.7176 172.793 35.8459 174.529 35.3618C176.291 34.8501 178.054 34.7261 179.816 34.9751C181.604 35.2379 183.301 35.9015 184.895 36.9663C186.476 38.0451 187.824 39.5391 188.938 41.4478C190.493 44.1448 191.595 47.0906 192.256 50.2993C192.942 53.4804 193.188 56.7725 192.981 60.2026C192.8 63.6048 192.217 66.9518 191.219 70.271C190.258 73.4299 188.965 76.4381 187.324 79.2964C189.152 80.2583 191.093 80.8768 193.144 81.1704C195.49 81.4746 197.809 81.3639 200.09 80.8384C202.37 80.2851 204.417 79.2895 206.258 77.8511C205.078 74.5041 204.34 71.074 204.029 67.561C203.744 64.0203 203.938 60.6316 204.599 57.3813C205.247 54.1034 206.465 51.1155 208.227 48.4185C210.015 45.6939 212.4 43.4256 215.381 41.6138C217.661 40.217 220.019 39.5393 222.481 39.5669C224.969 39.5669 227.458 40.1476 229.946 41.2817C232.46 42.4297 234.896 44.0203 237.255 46.0395C239.639 48.0726 241.828 50.4105 243.837 53.0659C245.871 55.7215 247.672 58.5713 249.227 61.5864C250.782 64.6152 251.975 67.6991 252.804 70.8247C253.66 73.9643 254.1 77.0218 254.1 80.0093C254.1 84.2137 253.478 87.7958 252.234 90.7417C250.99 93.6598 249.332 95.9556 247.258 97.6567C245.185 99.3856 242.865 100.59 240.312 101.253C237.786 101.917 235.207 102.083 232.59 101.751C228.132 101.198 224.102 99.6488 220.512 97.104C216.91 94.6006 213.852 91.5019 211.338 87.8091C209.64 90.7964 207.606 93.1481 205.221 94.8354C202.837 96.4952 200.309 97.4638 197.653 97.7681C194.984 98.0584 192.367 97.6849 189.775 96.6616C187.209 95.6658 184.902 93.9916 182.829 91.6265C181.875 90.5443 181.003 89.3211 180.216 87.9604C177.795 90.0375 175.075 91.6846 172.041 92.8989C168.827 94.199 165.276 94.8354 161.415 94.8354C156.4 94.8354 152.098 93.7843 148.508 91.6821C145.249 89.7337 142.685 87.0778 140.823 83.728C139.906 84.156 138.986 84.5758 138.063 84.9858C132.323 87.5307 126.634 89.6337 121.01 91.2934C115.413 92.9531 110.022 94.1007 104.839 94.7231C99.6811 95.304 94.9119 95.332 90.5319 94.7788C86.1391 94.1979 82.3035 92.9253 79.0251 90.9614C78.6702 90.7441 78.3249 90.5159 77.987 90.2808C76.3269 92.9038 74.4928 95.3813 72.4802 97.7114C69.2665 101.473 65.7157 104.737 61.8542 107.503C58.0186 110.27 53.9885 112.427 49.777 113.976C46.1099 115.331 42.3646 116.189 38.529 116.521C34.7193 116.853 30.9352 116.576 27.1774 115.691C23.4456 114.833 19.843 113.285 16.3962 111.044C13.7657 109.343 11.3423 107.144 9.13935 104.46C6.96244 101.763 5.10952 98.7068 3.59345 95.2768C2.06437 91.8468 1.01446 88.1812 0.431339 84.2671C-0.16469 80.3254 -0.138887 76.3004 0.483097 72.2065C1.06622 67.9744 2.06456 64.3924 3.48993 61.4741C4.94127 58.5696 6.62625 56.2593 8.57001 54.5581C10.5006 52.8296 12.4828 51.7229 14.53 51.2388C16.5644 50.727 18.4956 50.7966 20.3356 51.4604C22.2015 52.0966 23.7825 53.2859 25.1042 55.0561C26.4129 56.8264 27.3071 59.1502 27.7995 62.0269C28.279 64.876 28.137 68.2515 27.3854 72.1518C26.9967 74.0051 26.6206 75.8305 26.2448 77.6284C25.8949 79.3988 25.6747 81.1142 25.571 82.7739C25.4933 84.4334 25.675 86.0375 26.0895 87.5864C26.7374 90.0621 27.9294 92.0403 29.6657 93.5063C31.3891 94.9723 33.4495 96.0234 35.8337 96.6597C38.218 97.2821 40.8101 97.5035 43.6091 97.3237C46.4081 97.1716 49.2204 96.6742 52.0583 95.8306C54.8832 94.973 57.5785 93.8663 60.1442 92.4556C62.7359 91.0172 64.9905 89.3429 66.9343 87.4204C68.6466 85.725 70.0052 83.8828 71.0124 81.9038C69.8468 79.3588 69.1265 76.3866 68.8464 72.9858C68.5239 73.0366 68.18 73.1087 67.8151 73.2026C65.1458 73.908 62.502 74.5856 59.8845 75.2495C57.254 75.8857 54.766 76.356 52.4206 76.688C50.0624 76.9922 47.9374 77.0618 46.0456 76.9097C44.1409 76.7714 42.5856 76.2871 41.3806 75.4712C40.927 75.1116 40.6154 74.6406 40.447 74.0874C40.2657 73.5066 40.3182 72.9257 40.6032 72.3726L48.7409 56.0522C49.1166 55.278 49.492 54.8904 49.8806 54.8901C50.2564 54.8625 50.7753 55.0981 51.4362 55.6099C52.8876 56.5364 55.1166 57.0761 58.1227 57.2144C61.129 57.3664 64.822 56.993 69.2145 56.1079C72.9465 55.3749 76.0179 55.2641 78.4411 55.7759C80.8902 56.3014 82.743 57.2972 83.987 58.7632C85.2569 60.243 86.0349 62.0684 86.32 64.2397C86.5921 66.3835 86.4492 68.7212 85.905 71.2661C85.2775 74.0541 84.4602 76.7673 83.4548 79.4087C83.4987 79.4233 83.5425 79.4392 83.5866 79.4536C86.6188 80.4494 90.0138 80.9748 93.7458 81.0024C97.4778 81.0439 101.417 80.6573 105.564 79.8413C109.711 78.9977 113.909 77.8357 118.159 76.3559C122.409 74.8484 126.556 73.0776 130.599 71.0444C129.213 69.4954 127.696 67.2551 126.038 64.2954C124.405 61.3495 122.565 57.3245 120.492 52.2349L119.611 52.8433C120.959 55.803 121.594 58.4589 121.529 60.8101C121.49 63.1749 120.919 65.2078 119.818 66.895C118.704 68.5962 117.239 69.9241 115.412 70.8784C113.611 71.805 111.589 72.3166 109.347 72.4272C107.132 72.5102 104.864 72.1236 102.557 71.2661C100.277 70.4224 98.1123 69.0804 96.0778 67.227C94.0694 65.3461 92.3594 62.9116 90.947 59.9243C89.8326 57.5316 89.0545 55.0007 88.614 52.3452C88.1993 49.662 88.0961 47.0063 88.3034 44.3784C88.5366 41.723 89.1064 39.2612 90.0134 36.9653C90.9075 34.6418 92.1132 32.6363 93.6423 30.9351C95.1973 29.2062 97.063 27.9195 99.2399 27.062ZM223.363 58.9858C221.704 58.5156 220.045 58.4744 218.386 58.8755C217.933 60.6872 217.881 62.5681 218.231 64.5181C218.607 66.4406 219.229 68.2667 220.097 69.9956C220.991 71.6967 222.041 73.1899 223.259 74.4761C224.503 75.7346 225.76 76.6338 227.043 77.187C228.351 77.7402 229.583 77.8378 230.723 77.4643C231.864 77.0632 232.796 76.0254 233.522 74.3657C234.17 72.9274 234.326 71.42 233.989 69.8296C233.678 68.2114 233.004 66.662 231.967 65.1821C230.931 63.7161 229.648 62.4436 228.132 61.3647C226.641 60.2583 225.047 59.4699 223.363 58.9858ZM281.714 57.0474C280.431 56.9783 279.277 57.2693 278.241 57.9331C277.204 58.597 276.401 59.5374 275.857 60.7544C275.339 61.9715 275.196 63.3547 275.442 64.9038C275.714 66.4528 276.544 68.0846 277.93 69.772C279.032 71.1412 280.379 72.3452 281.973 73.3686C283.554 74.3643 285.29 75.0559 287.156 75.4155C288.854 75.7553 290.551 75.658 292.249 75.1382C292.025 73.8636 291.879 72.5814 291.812 71.2934C291.584 70.4564 291.347 69.6166 291.095 68.7759C290.499 66.6738 289.813 64.7929 289.022 63.1333C288.011 61.031 286.871 59.5097 285.601 58.5415C284.318 57.5872 283.022 57.0889 281.714 57.0474ZM170.59 8.58545C172.248 8.58547 173.752 9.02744 175.099 9.91259C176.447 10.7701 177.509 11.9049 178.312 13.3433C179.103 14.7817 179.505 16.3722 179.505 18.1011C179.505 19.8436 179.103 21.4476 178.312 22.9136C177.509 24.3519 176.447 25.5006 175.099 26.3442C173.752 27.2017 172.248 27.6167 170.59 27.6167C168.996 27.6167 167.505 27.2018 166.132 26.3442C164.784 25.5005 163.695 24.352 162.866 22.9136C162.063 21.4477 161.675 19.8435 161.674 18.1011C161.674 16.3723 162.063 14.7816 162.866 13.3433C163.695 11.9048 164.784 10.7701 166.132 9.91259C167.505 9.02742 168.996 8.58545 170.59 8.58545Z" fill="#FF4466"/>
</svg>
